<svg xmlns="http://www.w3.org/2000/svg" xmlns:xlink="http://www.w3.org/1999/xlink" viewBox="0 0 624 624"><defs><style>.cls-1,.cls-5{fill:#fff;}.cls-1{opacity:0;}.cls-2{fill:url(#무제_그라디언트_56);}.cls-3{fill:url(#무제_그라디언트_48);}.cls-4{fill:#74b0df;}</style><linearGradient id="무제_그라디언트_56" x1="87.23" y1="367.3" x2="435.48" y2="367.3" gradientUnits="userSpaceOnUse"><stop offset="0.26" stop-color="#131993"/><stop offset="0.41" stop-color="#2737a2"/><stop offset="1" stop-color="#78afde"/></linearGradient><linearGradient id="무제_그라디언트_48" x1="308.76" y1="145.9" x2="485.6" y2="452.21" gradientUnits="userSpaceOnUse"><stop offset="0.07" stop-color="#ba0086"/><stop offset="1" stop-color="#78afde"/></linearGradient></defs><g id="레이어_2" data-name="레이어 2"><g id="Layer_1" data-name="Layer 1"><rect class="cls-1" width="624" height="624"/><path class="cls-2" d="M172.79,452.86a85.56,85.56,0,0,1,0-171.12,11.56,11.56,0,0,1,0,23.11,62.45,62.45,0,1,0,0,124.9l112.87,0,138.26,0a11.56,11.56,0,1,1,0,23.11l-138.26,0Z"/><path class="cls-3" d="M504.74,439.38a11.56,11.56,0,0,1-5.81-21.56,89,89,0,0,0-67.34-163.09L423,257l-4.4-7.7A121,121,0,0,0,313.9,188.42a119.63,119.63,0,0,0-96.63,48.47,11.56,11.56,0,1,1-18.52-13.84A142.56,142.56,0,0,1,313.9,165.31a144.16,144.16,0,0,1,120.26,65.16,110.06,110.06,0,0,1,20.22-1.92,112.17,112.17,0,0,1,56.14,209.27A11.49,11.49,0,0,1,504.74,439.38Z"/><circle class="cls-4" cx="321.07" cy="340.02" r="46.53"/><circle class="cls-4" cx="443.87" cy="340.02" r="46.53"/><circle class="cls-4" cx="560.35" cy="293.49" r="46.53"/><circle class="cls-4" cx="376.72" cy="169.44" r="46.53"/><circle class="cls-4" cx="63.65" cy="260.35" r="46.53"/><circle class="cls-4" cx="206.4" cy="430.39" r="46.53"/><path class="cls-5" d="M442.24,349.66a1.16,1.16,0,0,1-1.16-1.16,6.16,6.16,0,1,0-12.32,0,1.16,1.16,0,1,1-2.31,0,8.47,8.47,0,1,1,16.94,0A1.15,1.15,0,0,1,442.24,349.66Z"/><path class="cls-5" d="M434.92,342.34a5.85,5.85,0,1,1,5.85-5.85A5.86,5.86,0,0,1,434.92,342.34Zm0-9.38a3.54,3.54,0,1,0,3.54,3.53A3.54,3.54,0,0,0,434.92,333Z"/><path class="cls-5" d="M459.63,335.57h-12a1.16,1.16,0,0,1,0-2.31h12a1.16,1.16,0,0,1,0,2.31Z"/><path class="cls-5" d="M459.63,341.31h-12a1.16,1.16,0,0,1,0-2.31h12a1.16,1.16,0,0,1,0,2.31Z"/><path class="cls-5" d="M459.63,347h-12a1.16,1.16,0,0,1,0-2.31h12a1.16,1.16,0,0,1,0,2.31Z"/><path class="cls-5" d="M462.85,360.72h-38a7.55,7.55,0,0,1-7.54-7.54V328a7.54,7.54,0,0,1,7.54-7.53h38a7.54,7.54,0,0,1,7.54,7.53v25.23A7.55,7.55,0,0,1,462.85,360.72Zm-38-38a5.23,5.23,0,0,0-5.23,5.22v25.23a5.24,5.24,0,0,0,5.23,5.23h38a5.23,5.23,0,0,0,5.22-5.23V328a5.22,5.22,0,0,0-5.22-5.22Z"/><path class="cls-5" d="M362.63,180.57l-10.32-10.31a1.15,1.15,0,0,1,0-1.63l10.32-10.32,1.63,1.64-9.49,9.49,9.49,9.5Z"/><path class="cls-5" d="M390.82,180.57l-1.63-1.63,9.49-9.5L389.19,160l1.63-1.64,10.31,10.32a1.13,1.13,0,0,1,.34.81,1.15,1.15,0,0,1-.34.82Z"/><rect class="cls-5" x="364.56" y="168.29" width="24.32" height="2.31" transform="translate(88.62 465.46) rotate(-69.99)"/><path class="cls-5" d="M225.38,450.54h-38a7.54,7.54,0,0,1-7.53-7.54V417.77a7.54,7.54,0,0,1,7.53-7.54h38a7.54,7.54,0,0,1,7.53,7.54V443A7.54,7.54,0,0,1,225.38,450.54Zm-38-38a5.23,5.23,0,0,0-5.22,5.23V443a5.23,5.23,0,0,0,5.22,5.23h38A5.23,5.23,0,0,0,230.6,443V417.77a5.23,5.23,0,0,0-5.22-5.23Z"/><path class="cls-5" d="M231.76,421H181a1.16,1.16,0,0,1,0-2.31h50.72a1.16,1.16,0,0,1,0,2.31Z"/><path class="cls-5" d="M231.76,426.51H181a1.16,1.16,0,0,1,0-2.31h50.72a1.16,1.16,0,0,1,0,2.31Z"/><path class="cls-5" d="M215.48,443.94a5.26,5.26,0,1,1,3.87-8.82,1.16,1.16,0,0,1-1.7,1.57,2.9,2.9,0,0,0-2.17-1,3,3,0,1,0,2.17,4.95,1.15,1.15,0,0,1,1.7,1.56A5.26,5.26,0,0,1,215.48,443.94Z"/><path class="cls-5" d="M221.52,443.94a5.26,5.26,0,1,1,5.26-5.26A5.27,5.27,0,0,1,221.52,443.94Zm0-8.21a2.95,2.95,0,1,0,2.95,2.95A3,3,0,0,0,221.52,435.73Z"/><path class="cls-5" d="M77.5,282.91H49.8a7.91,7.91,0,0,1-7.9-7.9V258.7a7.92,7.92,0,0,1,7.9-7.9H77.5a7.91,7.91,0,0,1,7.89,7.9V275A7.9,7.9,0,0,1,77.5,282.91Zm-27.7-29.8a5.59,5.59,0,0,0-5.58,5.59V275a5.59,5.59,0,0,0,5.58,5.59H77.5A5.59,5.59,0,0,0,83.08,275V258.7a5.59,5.59,0,0,0-5.58-5.59Z"/><path class="cls-5" d="M76.94,253.11H70.06A1.15,1.15,0,0,1,68.9,252v-5.73a5.25,5.25,0,0,0-10.5,0V252a1.15,1.15,0,0,1-1.16,1.15H50.35A1.15,1.15,0,0,1,49.2,252v-5.73a14.45,14.45,0,0,1,28.9,0V252A1.15,1.15,0,0,1,76.94,253.11Zm-5.73-2.31h4.58v-4.57a12.14,12.14,0,0,0-24.28,0v4.57h4.58v-4.57a7.56,7.56,0,0,1,15.12,0Z"/><path class="cls-5" d="M64.8,266.14a2.48,2.48,0,1,0-2.3,0l-.09.29-1.24,4.8h5l-1.24-4.8Z"/><path class="cls-5" d="M321.07,366.38l-.23-.05c-1.45-.3-14.14-18.46-14.74-19.36-1.42-2.17-4.75-7.85-4.75-13.57a19.72,19.72,0,0,1,39.44,0c0,5.72-3.32,11.4-4.75,13.57-.6.9-13.29,19.06-14.74,19.36Zm0-50.39a17.43,17.43,0,0,0-17.41,17.41c0,5.1,3.06,10.3,4.38,12.3,3.26,5,10.63,14.82,13,17.77,2.4-3,9.77-12.8,13-17.77,1.32-2,4.38-7.2,4.38-12.3A17.43,17.43,0,0,0,321.07,316Z"/><path class="cls-5" d="M321.07,341.72a8.4,8.4,0,1,1,8.4-8.4A8.41,8.41,0,0,1,321.07,341.72Zm0-14.49a6.09,6.09,0,1,0,6.09,6.09A6.09,6.09,0,0,0,321.07,327.23Z"/><path class="cls-5" d="M560.35,318.33a24.85,24.85,0,1,1,24.85-24.84A24.87,24.87,0,0,1,560.35,318.33Zm0-47.38a22.54,22.54,0,1,0,22.54,22.54A22.56,22.56,0,0,0,560.35,271Z"/><path class="cls-5" d="M560.35,306.23c-4.6,0-8.34-3.2-8.34-7.13a1.16,1.16,0,1,1,2.31,0c0,2.65,2.71,4.82,6,4.82s6-2.17,6-4.82-2.66-4.82-5.92-4.82c-4.41,0-7.9-3-7.9-6.77s3.49-6.77,7.79-6.77,7.79,3,7.79,6.77a1.16,1.16,0,0,1-2.31,0c0-2.46-2.46-4.46-5.48-4.46s-5.48,2-5.48,4.46,2.46,4.45,5.48,4.45c4.72,0,8.34,3.14,8.34,7.14S565,306.23,560.35,306.23Z"/><path class="cls-5" d="M560.35,309.52a1.15,1.15,0,0,1-1.15-1.16V278.61a1.16,1.16,0,0,1,2.31,0v29.75A1.16,1.16,0,0,1,560.35,309.52Z"/></g></g></svg>