<svg xmlns="http://www.w3.org/2000/svg" xmlns:xlink="http://www.w3.org/1999/xlink" viewBox="0 0 624 624"><defs><style>.cls-1,.cls-3{fill:#fff;}.cls-1{opacity:0;}.cls-2{fill:#e74336;}.cls-4{fill:#102088;}.cls-5{fill:url(#무제_그라디언트_44);}.cls-6{fill:url(#무제_그라디언트_44-2);}.cls-7{fill:#009048;}.cls-8{fill:#74b0df;}</style><linearGradient id="무제_그라디언트_44" x1="176.07" y1="255.79" x2="415.28" y2="168.73" gradientUnits="userSpaceOnUse"><stop offset="0.03" stop-color="#009048"/><stop offset="0.18" stop-color="#141e8a"/><stop offset="0.78" stop-color="#151a8c"/><stop offset="0.84" stop-color="#171c8d"/><stop offset="0.88" stop-color="#1c2592"/><stop offset="0.9" stop-color="#25339a"/><stop offset="0.93" stop-color="#3247a5"/><stop offset="0.95" stop-color="#4361b3"/><stop offset="0.98" stop-color="#5781c5"/><stop offset="0.99" stop-color="#6fa6d9"/><stop offset="1" stop-color="#76b1df"/></linearGradient><linearGradient id="무제_그라디언트_44-2" x1="220.39" y1="443.76" x2="470.21" y2="352.84" xlink:href="#무제_그라디언트_44"/></defs><g id="레이어_2" data-name="레이어 2"><g id="Layer_1" data-name="Layer 1"><rect class="cls-1" width="624" height="624"/><circle class="cls-2" cx="490.4" cy="249.69" r="13.11"/><rect class="cls-3" x="489.5" y="243.1" width="1.79" height="8.48"/><rect class="cls-3" x="489.5" y="254.17" width="1.79" height="1.66"/><circle class="cls-2" cx="179.44" cy="135.84" r="13.11"/><rect class="cls-3" x="178.55" y="129.25" width="1.79" height="8.48"/><rect class="cls-3" x="178.55" y="140.32" width="1.79" height="1.66"/><path class="cls-4" d="M260.66,301,270,287.58H260.6v-2.77h13.5v2.06l-9.36,13.44h9.41v2.76H260.66Z"/><path class="cls-4" d="M279.52,302.48a5.76,5.76,0,0,1-2.31-2.45,9,9,0,0,1,0-7.44,6,6,0,0,1,2.27-2.5,6.46,6.46,0,0,1,3.4-.89,6.68,6.68,0,0,1,3.17.75,5.43,5.43,0,0,1,2.25,2.3,8.09,8.09,0,0,1,.84,3.87v1h-9.55a4.57,4.57,0,0,0,.46,2,3.1,3.1,0,0,0,1.22,1.29,3.7,3.7,0,0,0,1.83.44,3.55,3.55,0,0,0,1.72-.39,2.45,2.45,0,0,0,1.05-1H289a4.72,4.72,0,0,1-1.1,2.07,5.21,5.21,0,0,1-2,1.37,7.53,7.53,0,0,1-2.81.49A7,7,0,0,1,279.52,302.48Zm6.54-7.55a3.48,3.48,0,0,0-.4-1.66,2.8,2.8,0,0,0-1.11-1.15,3.09,3.09,0,0,0-1.61-.42,3.27,3.27,0,0,0-2.86,1.61,3.73,3.73,0,0,0-.48,1.62Z"/><path class="cls-4" d="M291.66,289.38h3.11v2.28h.14a3.36,3.36,0,0,1,1.28-1.83,3.56,3.56,0,0,1,2.1-.65l.61,0c.22,0,.41,0,.56.06v3a4,4,0,0,0-.67-.13A6.35,6.35,0,0,0,298,292a3.22,3.22,0,0,0-1.58.39,2.74,2.74,0,0,0-1.11,1.05,2.92,2.92,0,0,0-.41,1.53v8.07h-3.2Z"/><path class="cls-4" d="M303.45,302.46a5.79,5.79,0,0,1-2.29-2.48,8.88,8.88,0,0,1,0-7.41,5.87,5.87,0,0,1,2.29-2.49,7.24,7.24,0,0,1,6.92,0,5.87,5.87,0,0,1,2.29,2.49,9,9,0,0,1,0,7.41,5.79,5.79,0,0,1-2.29,2.48,7.24,7.24,0,0,1-6.92,0Zm.52-3.89a3.58,3.58,0,0,0,1.12,1.61,2.89,2.89,0,0,0,1.83.59,2.8,2.8,0,0,0,1.8-.59,3.65,3.65,0,0,0,1.12-1.61,7.36,7.36,0,0,0,0-4.61,3.63,3.63,0,0,0-1.12-1.62,2.75,2.75,0,0,0-1.8-.6,2.84,2.84,0,0,0-1.83.6A3.55,3.55,0,0,0,304,294a7.18,7.18,0,0,0,0,4.61Z"/><path class="cls-4" d="M321.45,284.81H336v2.77h-5.64v15.49H327.1V287.58h-5.65Z"/><path class="cls-4" d="M337,289.38h3.11v2.28h.15a3.36,3.36,0,0,1,1.28-1.83,3.51,3.51,0,0,1,2.1-.65l.61,0c.22,0,.4,0,.55.06v3a4,4,0,0,0-.67-.13,6.09,6.09,0,0,0-.82-.06,3.26,3.26,0,0,0-1.59.39,2.81,2.81,0,0,0-1.11,1.05,3,3,0,0,0-.4,1.53v8.07H337Z"/><path class="cls-4" d="M355.46,289.38h3.2v13.69h-3.1v-2.42h-.15a4,4,0,0,1-1.55,1.89,5,5,0,0,1-4.95.1,4.08,4.08,0,0,1-1.61-1.77,6.22,6.22,0,0,1-.57-2.77v-8.72h3.21v8.23a3.31,3.31,0,0,0,.32,1.49,2.3,2.3,0,0,0,.91,1,2.55,2.55,0,0,0,1.36.35,2.94,2.94,0,0,0,1.42-.36A2.71,2.71,0,0,0,355,299a3.28,3.28,0,0,0,.42-1.71Z"/><path class="cls-4" d="M368.73,292a2.74,2.74,0,0,0-1.64-.45,3.36,3.36,0,0,0-1.22.21,2,2,0,0,0-.85.58,1.21,1.21,0,0,0,.16,1.77,3.54,3.54,0,0,0,1.49.62l2.32.5a6,6,0,0,1,2.89,1.33,3.21,3.21,0,0,1,1,2.38,3.77,3.77,0,0,1-.72,2.27,4.62,4.62,0,0,1-2,1.54,7.91,7.91,0,0,1-3.08.55,8.17,8.17,0,0,1-3-.5,4.61,4.61,0,0,1-2-1.42,4.43,4.43,0,0,1-.89-2.25h3.25a1.88,1.88,0,0,0,.82,1.31,3.24,3.24,0,0,0,1.8.43,3.9,3.9,0,0,0,1.34-.2,1.94,1.94,0,0,0,.9-.57,1.28,1.28,0,0,0,.32-.88,1.23,1.23,0,0,0-.49-1,3.66,3.66,0,0,0-1.5-.61l-2.21-.47a5.55,5.55,0,0,1-2.87-1.36,3.32,3.32,0,0,1-1-2.45,3.71,3.71,0,0,1,.68-2.21,4.44,4.44,0,0,1,1.94-1.47,7.64,7.64,0,0,1,2.91-.51,7.16,7.16,0,0,1,2.81.5,4.35,4.35,0,0,1,1.89,1.42,4.21,4.21,0,0,1,.81,2.16h-3.05A1.94,1.94,0,0,0,368.73,292Z"/><path class="cls-4" d="M382.12,291.86h-2.7V299a2.05,2.05,0,0,0,.2,1,1,1,0,0,0,.55.48,2.3,2.3,0,0,0,.83.13c.3,0,.73,0,1.3-.07v2.63a11.09,11.09,0,0,1-1.81.14,5.48,5.48,0,0,1-2.21-.42,3.25,3.25,0,0,1-1.52-1.26,3.8,3.8,0,0,1-.55-2.09v-7.63h-1.94v-2.48h1.94V286.1h3.21v3.28h2.7Z"/><path class="cls-4" d="M283,320.77a2.84,2.84,0,0,0-1.19-.85,4.88,4.88,0,0,0-1.74-.29,4.55,4.55,0,0,0-1.77.31,2.6,2.6,0,0,0-1.15.84,2.06,2.06,0,0,0-.4,1.24,1.81,1.81,0,0,0,.86,1.61,6.81,6.81,0,0,0,2.25.91l1.72.43a9.29,9.29,0,0,1,3.86,1.8,4.29,4.29,0,0,1,1.49,3.45,5,5,0,0,1-.82,2.83,5.38,5.38,0,0,1-2.38,1.9,9.31,9.31,0,0,1-3.71.67,9.52,9.52,0,0,1-3.7-.66,5.43,5.43,0,0,1-2.44-1.93,5.6,5.6,0,0,1-.94-3.06h3.22a2.9,2.9,0,0,0,.58,1.57,3.1,3.1,0,0,0,1.35.95,5.23,5.23,0,0,0,1.9.33,5.11,5.11,0,0,0,1.9-.33,3,3,0,0,0,1.3-.93,2.14,2.14,0,0,0,.46-1.37,1.71,1.71,0,0,0-.4-1.15,3.12,3.12,0,0,0-1.1-.79,12,12,0,0,0-1.79-.6l-2.07-.53c-3.25-.83-4.87-2.46-4.86-4.91a4.68,4.68,0,0,1,.85-2.8,5.65,5.65,0,0,1,2.4-1.9,8.4,8.4,0,0,1,3.43-.67,8.12,8.12,0,0,1,3.4.67,5.46,5.46,0,0,1,2.31,1.87,4.71,4.71,0,0,1,.86,2.73h-3.16A2.56,2.56,0,0,0,283,320.77Z"/><path class="cls-4" d="M292.05,334.75a5.76,5.76,0,0,1-2.31-2.45,9,9,0,0,1,0-7.43,6,6,0,0,1,2.27-2.5,6.37,6.37,0,0,1,3.4-.9,6.68,6.68,0,0,1,3.17.75,5.4,5.4,0,0,1,2.25,2.31,8,8,0,0,1,.84,3.86v1h-9.55a4.54,4.54,0,0,0,.46,2,3,3,0,0,0,1.22,1.29,3.6,3.6,0,0,0,1.83.45,3.55,3.55,0,0,0,1.72-.39,2.47,2.47,0,0,0,1-1.05h3.14a4.81,4.81,0,0,1-1.1,2.08,5.32,5.32,0,0,1-2,1.37,7.74,7.74,0,0,1-2.81.48A6.93,6.93,0,0,1,292.05,334.75Zm6.54-7.54a3.41,3.41,0,0,0-.4-1.67,2.86,2.86,0,0,0-1.11-1.15,3.19,3.19,0,0,0-1.61-.41,3.27,3.27,0,0,0-2.86,1.61,3.73,3.73,0,0,0-.48,1.62Z"/><path class="cls-4" d="M306.67,334.72a5.93,5.93,0,0,1-2.28-2.5,8.15,8.15,0,0,1-.79-3.67,8.07,8.07,0,0,1,.8-3.68,6,6,0,0,1,2.28-2.5,6.52,6.52,0,0,1,3.45-.9,6.94,6.94,0,0,1,2.95.61,5.14,5.14,0,0,1,2.06,1.73,5.06,5.06,0,0,1,.87,2.57H313a3,3,0,0,0-.92-1.68,2.64,2.64,0,0,0-1.84-.64,3,3,0,0,0-1.76.53,3.36,3.36,0,0,0-1.17,1.54,6.12,6.12,0,0,0-.42,2.37,6.41,6.41,0,0,0,.41,2.4,3.4,3.4,0,0,0,1.17,1.55,3,3,0,0,0,1.77.54,2.66,2.66,0,0,0,2.76-2.31H316a5.32,5.32,0,0,1-.86,2.57,5.05,5.05,0,0,1-2,1.74,6.69,6.69,0,0,1-3,.62A6.59,6.59,0,0,1,306.67,334.72Z"/><path class="cls-4" d="M327.18,321.65h3.2v13.7h-3.1v-2.43h-.14a4.2,4.2,0,0,1-1.56,1.9,4.53,4.53,0,0,1-2.56.71,4.67,4.67,0,0,1-2.39-.61,4.06,4.06,0,0,1-1.6-1.77,6.13,6.13,0,0,1-.58-2.78v-8.72h3.21v8.23a3.38,3.38,0,0,0,.32,1.5,2.36,2.36,0,0,0,.91,1,2.66,2.66,0,0,0,1.37.35,2.9,2.9,0,0,0,1.41-.36,2.73,2.73,0,0,0,1.09-1.07,3.27,3.27,0,0,0,.42-1.7Z"/><path class="cls-4" d="M333.48,321.65h3.12v2.28h.14a3.37,3.37,0,0,1,1.28-1.82,3.49,3.49,0,0,1,2.1-.65c.18,0,.39,0,.61,0a5.06,5.06,0,0,1,.55.07v2.95a3.79,3.79,0,0,0-.66-.13,6.35,6.35,0,0,0-.83-.06,3.36,3.36,0,0,0-1.59.38,2.9,2.9,0,0,0-1.11,1.06,3,3,0,0,0-.4,1.53v8.07h-3.21Z"/><path class="cls-4" d="M343.88,319.47a1.85,1.85,0,0,1-.69-.64,1.64,1.64,0,0,1-.25-.87,1.7,1.7,0,0,1,.25-.88,1.75,1.75,0,0,1,.69-.63,1.87,1.87,0,0,1,.93-.24,1.84,1.84,0,0,1,.93.24,1.9,1.9,0,0,1,.68.64,1.57,1.57,0,0,1,.25.87,1.55,1.55,0,0,1-.25.87,1.9,1.9,0,0,1-.68.64,1.94,1.94,0,0,1-.93.23A2,2,0,0,1,343.88,319.47Zm-.68,2.18h3.21v13.7H343.2Z"/><path class="cls-4" d="M356.32,324.13h-2.7v7.1a2,2,0,0,0,.21,1,1,1,0,0,0,.54.48,2.55,2.55,0,0,0,.83.12c.3,0,.73,0,1.3-.06v2.63a11.15,11.15,0,0,1-1.81.13,5.48,5.48,0,0,1-2.21-.41,3.37,3.37,0,0,1-1.52-1.26,3.86,3.86,0,0,1-.55-2.1v-7.63h-1.94v-2.48h1.94v-3.28h3.21v3.28h2.7Z"/><path class="cls-4" d="M359.06,340.42v-2.58c.33,0,.78.05,1.36.05a3,3,0,0,0,.8-.09,1.23,1.23,0,0,0,.62-.42,3.36,3.36,0,0,0,.56-1l.28-.73-5-14h3.4L364.29,332h.14l3.18-10.35H371L365.54,337a5.51,5.51,0,0,1-1.78,2.59,4.85,4.85,0,0,1-3,.88C360,340.48,359.45,340.46,359.06,340.42Z"/><path class="cls-5" d="M206.09,319.63a9.69,9.69,0,0,1-9.69-9.69V260.39a124.64,124.64,0,0,1,210.82-90.18l.25.24c.65.67,16,16.63,21.91,37.62a9.68,9.68,0,1,1-18.64,5.23c-4.31-15.38-15.86-28-17.06-29.24a105.27,105.27,0,0,0-177.91,76.33v49.55A9.68,9.68,0,0,1,206.09,319.63Z"/><path class="cls-6" d="M321.18,486.62a124.12,124.12,0,0,1-98.63-48.55c-.13-.17-.26-.35-.38-.53-.57-.84-14.06-21-18.53-42.56a9.69,9.69,0,0,1,19-3.93c3.44,16.6,14,33.24,15.47,35.43a105.29,105.29,0,0,0,188.51-64.64V287.93a9.69,9.69,0,0,1,19.37,0v73.91A124.92,124.92,0,0,1,321.18,486.62Z"/><circle class="cls-7" cx="133.12" cy="238.3" r="39.81"/><path class="cls-3" d="M108,231.78h4.14a4.87,4.87,0,0,1,2.31.5,3.22,3.22,0,0,1,1.38,1.38,4.51,4.51,0,0,1,0,4,3.25,3.25,0,0,1-1.38,1.39,4.67,4.67,0,0,1-2.29.51h-2.65V244H108Zm4.09,6.41a2.67,2.67,0,0,0,2-.7,2.91,2.91,0,0,0,0-3.69,2.77,2.77,0,0,0-2-.68h-2.57v5.07Z"/><path class="cls-3" d="M119.73,243.56a3.88,3.88,0,0,1-1.49-1.64,5.63,5.63,0,0,1-.51-2.46,5.71,5.71,0,0,1,.51-2.47,4,4,0,0,1,1.46-1.68,3.81,3.81,0,0,1,2.15-.61,4.27,4.27,0,0,1,1.94.46,3.57,3.57,0,0,1,1.45,1.48,5.48,5.48,0,0,1,.56,2.63v.6h-6.62a3.65,3.65,0,0,0,.39,1.62,2.44,2.44,0,0,0,1,1,2.9,2.9,0,0,0,1.44.35,2.72,2.72,0,0,0,1.3-.29,2.06,2.06,0,0,0,.81-.76h1.55a3.14,3.14,0,0,1-.72,1.22,3.48,3.48,0,0,1-1.27.82,4.47,4.47,0,0,1-1.67.29A4.28,4.28,0,0,1,119.73,243.56Zm4.6-4.92a2.94,2.94,0,0,0-.31-1.37,2.3,2.3,0,0,0-.86-.94,2.39,2.39,0,0,0-1.29-.34,2.53,2.53,0,0,0-1.36.36,2.58,2.58,0,0,0-.94,1,3.27,3.27,0,0,0-.39,1.32Z"/><path class="cls-3" d="M129.24,243.56a4,4,0,0,1-1.47-1.66,5.51,5.51,0,0,1-.52-2.47,5.61,5.61,0,0,1,.52-2.48,4,4,0,0,1,1.47-1.66,4.29,4.29,0,0,1,4.34,0A3.88,3.88,0,0,1,135,237a5.61,5.61,0,0,1,.52,2.48,5.51,5.51,0,0,1-.52,2.47,3.88,3.88,0,0,1-1.46,1.66,4.35,4.35,0,0,1-4.34,0Zm-.24-2.41a2.69,2.69,0,0,0,.91,1.24,2.42,2.42,0,0,0,1.5.47,2.37,2.37,0,0,0,1.49-.47,2.69,2.69,0,0,0,.91-1.24,5.08,5.08,0,0,0,0-3.44,2.77,2.77,0,0,0-.91-1.25,2.31,2.31,0,0,0-1.49-.47,2.36,2.36,0,0,0-1.5.47,2.77,2.77,0,0,0-.91,1.25,5.08,5.08,0,0,0,0,3.44Z"/><path class="cls-3" d="M137.44,234.82h1.4v1.45H139a6.23,6.23,0,0,1,.53-.75,2.35,2.35,0,0,1,.77-.55,2.93,2.93,0,0,1,1.34-.27,3.65,3.65,0,0,1,2,.58,3.71,3.71,0,0,1,1.37,1.64,6.6,6.6,0,0,1,0,5,3.73,3.73,0,0,1-1.36,1.65,3.56,3.56,0,0,1-2,.58,3.09,3.09,0,0,1-1.33-.26,2.57,2.57,0,0,1-.81-.59,5,5,0,0,1-.52-.74h-.12v4.83h-1.45Zm1.72,6.38a2.72,2.72,0,0,0,.89,1.21,2.3,2.3,0,0,0,1.41.44,2.23,2.23,0,0,0,1.43-.46,2.69,2.69,0,0,0,.89-1.23,4.9,4.9,0,0,0,.3-1.77,5,5,0,0,0-.29-1.74,2.58,2.58,0,0,0-.89-1.21,2.59,2.59,0,0,0-2.86,0,2.54,2.54,0,0,0-.88,1.18,4.9,4.9,0,0,0-.3,1.79A5,5,0,0,0,139.16,241.2Z"/><path class="cls-3" d="M148.86,244h-1.45V231.78h1.45Z"/><path class="cls-3" d="M152.74,243.56a3.86,3.86,0,0,1-1.48-1.64,5.5,5.5,0,0,1-.52-2.46,5.57,5.57,0,0,1,.52-2.47,4,4,0,0,1,1.45-1.68,3.82,3.82,0,0,1,2.16-.61,4.25,4.25,0,0,1,1.93.46,3.51,3.51,0,0,1,1.45,1.48,5.37,5.37,0,0,1,.56,2.63v.6H152.2a3.65,3.65,0,0,0,.39,1.62,2.42,2.42,0,0,0,1,1,2.92,2.92,0,0,0,1.44.35,2.79,2.79,0,0,0,1.31-.29,2.1,2.1,0,0,0,.8-.76h1.55A2.91,2.91,0,0,1,158,243a3.4,3.4,0,0,1-1.27.82,4.47,4.47,0,0,1-1.67.29A4.28,4.28,0,0,1,152.74,243.56Zm4.6-4.92a2.94,2.94,0,0,0-.31-1.37,2.23,2.23,0,0,0-.86-.94,2.39,2.39,0,0,0-1.29-.34,2.56,2.56,0,0,0-1.36.36,2.48,2.48,0,0,0-.93,1,3,3,0,0,0-.39,1.32Z"/><circle class="cls-7" cx="479.67" cy="328.44" r="39.81"/><path class="cls-3" d="M458,334.09H456.5l-6.59-9.48h-.12v9.48h-1.51V321.92h1.46l6.6,9.49h.12v-9.49H458Z"/><path class="cls-3" d="M462,333.7a3.85,3.85,0,0,1-1.49-1.65,5.56,5.56,0,0,1-.51-2.45,5.71,5.71,0,0,1,.51-2.47,4.09,4.09,0,0,1,1.46-1.69,3.89,3.89,0,0,1,2.15-.6,4.1,4.1,0,0,1,1.93.46,3.48,3.48,0,0,1,1.46,1.48,5.48,5.48,0,0,1,.56,2.63v.6h-6.62a3.65,3.65,0,0,0,.39,1.62,2.44,2.44,0,0,0,1,1,2.88,2.88,0,0,0,1.43.35,2.64,2.64,0,0,0,1.31-.3,2,2,0,0,0,.81-.75H468a3.11,3.11,0,0,1-.73,1.22A3.57,3.57,0,0,1,466,334a4.7,4.7,0,0,1-1.68.29A4.27,4.27,0,0,1,462,333.7Zm4.59-4.92a3,3,0,0,0-.3-1.37,2.24,2.24,0,0,0-.86-.94,2.43,2.43,0,0,0-1.3-.35,2.53,2.53,0,0,0-1.35.37,2.58,2.58,0,0,0-.94,1,3,3,0,0,0-.39,1.32Z"/><path class="cls-3" d="M474,326.17H472v5.29a1.82,1.82,0,0,0,.17.86.87.87,0,0,0,.42.41,1.87,1.87,0,0,0,.62.1l.85,0v1.35a7.63,7.63,0,0,1-1,.07,2.81,2.81,0,0,1-1.21-.27,2.25,2.25,0,0,1-.93-.8,2.28,2.28,0,0,1-.36-1.3v-5.67h-1.37V325h1.37v-2.19H472V325H474Z"/><path class="cls-3" d="M475.1,325h1.52l1.95,7h.1l1.92-7h1.55l1.9,6.93h.1l1.95-6.93h1.52l-2.77,9.13h-1.43l-2-7h-.15l-2,7h-1.44Z"/><path class="cls-3" d="M490.45,333.69A3.91,3.91,0,0,1,489,332a6.15,6.15,0,0,1,0-5,3.94,3.94,0,0,1,1.46-1.66,4.3,4.3,0,0,1,4.35,0,3.88,3.88,0,0,1,1.46,1.66,6.15,6.15,0,0,1,0,5,3.85,3.85,0,0,1-1.46,1.65,4.3,4.3,0,0,1-4.35,0Zm-.23-2.4a2.74,2.74,0,0,0,.91,1.24,2.42,2.42,0,0,0,1.5.47,2.37,2.37,0,0,0,1.49-.47,2.74,2.74,0,0,0,.91-1.24,5.08,5.08,0,0,0,0-3.44,2.8,2.8,0,0,0-.91-1.26,2.37,2.37,0,0,0-1.49-.47,2.42,2.42,0,0,0-1.5.47,2.8,2.8,0,0,0-.91,1.26,5.08,5.08,0,0,0,0,3.44Z"/><path class="cls-3" d="M498.66,325h1.4v1.39h.1a2.19,2.19,0,0,1,.51-.8,2.53,2.53,0,0,1,.84-.54,2.63,2.63,0,0,1,1-.19c.28,0,.53,0,.75,0v1.46l-.38-.06-.49,0a2.49,2.49,0,0,0-1.17.27,2.05,2.05,0,0,0-1.12,1.86v5.75h-1.45Z"/><path class="cls-3" d="M504.67,321.92h1.45V329h.17l3.95-4H512l-3.83,3.9,4.11,5.23h-1.83l-3.38-4.3-1,.91v3.39h-1.45Z"/><circle class="cls-8" cx="406.42" cy="158.11" r="39.81"/><path class="cls-3" d="M381.49,163.76V151.59h3.94a6,6,0,0,1,3,.72,4.76,4.76,0,0,1,2,2.09,7.42,7.42,0,0,1,.67,3.25,7.31,7.31,0,0,1-.68,3.27,4.76,4.76,0,0,1-2,2.11,6.31,6.31,0,0,1-3.14.73Zm3.69-1.34a4.87,4.87,0,0,0,2.46-.57,3.58,3.58,0,0,0,1.48-1.64,6.19,6.19,0,0,0,.48-2.56,6.12,6.12,0,0,0-.48-2.54,3.59,3.59,0,0,0-1.43-1.62,4.62,4.62,0,0,0-2.35-.56H383v9.49Z"/><path class="cls-3" d="M394.67,163.37a3.83,3.83,0,0,1-1.48-1.65,5.42,5.42,0,0,1-.52-2.45,5.54,5.54,0,0,1,.52-2.47,4.07,4.07,0,0,1,1.45-1.69,3.9,3.9,0,0,1,2.16-.6,4.13,4.13,0,0,1,1.93.46,3.46,3.46,0,0,1,1.45,1.48,5.48,5.48,0,0,1,.56,2.63v.6h-6.61a3.65,3.65,0,0,0,.39,1.62,2.42,2.42,0,0,0,1,1,3,3,0,0,0,1.44.35,2.67,2.67,0,0,0,1.31-.3,2,2,0,0,0,.8-.75h1.55a3,3,0,0,1-.72,1.22,3.53,3.53,0,0,1-1.27.82,4.68,4.68,0,0,1-1.67.29A4.38,4.38,0,0,1,394.67,163.37Zm4.6-4.93a3,3,0,0,0-.3-1.36,2.26,2.26,0,0,0-.87-.94,2.4,2.4,0,0,0-1.29-.35,2.56,2.56,0,0,0-1.36.37,2.48,2.48,0,0,0-.93,1,3,3,0,0,0-.39,1.31Z"/><path class="cls-3" d="M406.47,163.76H405l-3.37-9.13h1.57l2.5,7.24h.09l2.5-7.24h1.57Z"/><path class="cls-3" d="M411.67,153a1,1,0,0,1-.38-.35.91.91,0,0,1,0-1,1.07,1.07,0,0,1,.38-.35,1.14,1.14,0,0,1,.51-.13,1.09,1.09,0,0,1,.5.13,1,1,0,0,1,.37.35.91.91,0,0,1,0,1,.89.89,0,0,1-.37.35,1,1,0,0,1-.5.13A1,1,0,0,1,411.67,153Zm-.23,1.64h1.45v9.13h-1.45Z"/><path class="cls-3" d="M416.72,163.35a3.94,3.94,0,0,1-1.45-1.67,5.75,5.75,0,0,1-.5-2.44,5.48,5.48,0,0,1,.52-2.45,3.85,3.85,0,0,1,3.62-2.28,4.14,4.14,0,0,1,1.74.36,3.37,3.37,0,0,1,1.28,1,3.19,3.19,0,0,1,.6,1.51h-1.44a2.06,2.06,0,0,0-.39-.8A2.11,2.11,0,0,0,420,156a2.45,2.45,0,0,0-1-.22,2.39,2.39,0,0,0-1.42.43,2.64,2.64,0,0,0-.95,1.19,4.32,4.32,0,0,0-.34,1.78,4.67,4.67,0,0,0,.33,1.83,2.7,2.7,0,0,0,.95,1.21,2.46,2.46,0,0,0,1.43.42,2.29,2.29,0,0,0,1.39-.42,1.94,1.94,0,0,0,.77-1.16h1.44a3.16,3.16,0,0,1-1.83,2.5,4.34,4.34,0,0,1-4-.22Z"/><path class="cls-3" d="M425.89,163.37a3.85,3.85,0,0,1-1.49-1.65,5.56,5.56,0,0,1-.51-2.45,5.68,5.68,0,0,1,.51-2.47,4.09,4.09,0,0,1,1.46-1.69,3.89,3.89,0,0,1,2.15-.6,4.07,4.07,0,0,1,1.93.46,3.48,3.48,0,0,1,1.46,1.48,5.48,5.48,0,0,1,.56,2.63v.6h-6.62a3.65,3.65,0,0,0,.39,1.62,2.44,2.44,0,0,0,1,1,2.9,2.9,0,0,0,1.44.35,2.6,2.6,0,0,0,1.3-.3,2,2,0,0,0,.81-.75h1.55a3.11,3.11,0,0,1-.73,1.22,3.49,3.49,0,0,1-1.26.82,4.68,4.68,0,0,1-1.67.29A4.38,4.38,0,0,1,425.89,163.37Zm4.59-4.93a3,3,0,0,0-.3-1.36,2.24,2.24,0,0,0-.86-.94,2.41,2.41,0,0,0-1.3-.35,2.53,2.53,0,0,0-1.35.37,2.58,2.58,0,0,0-.94,1,3.12,3.12,0,0,0-.39,1.31Z"/><circle class="cls-8" cx="253.75" cy="457.84" r="39.81"/><path class="cls-3" d="M237.06,463.48V451.31H241a6,6,0,0,1,3,.73,4.74,4.74,0,0,1,1.94,2.09,8.21,8.21,0,0,1,0,6.52,4.74,4.74,0,0,1-2,2.1,6.31,6.31,0,0,1-3.14.73Zm3.69-1.34a4.85,4.85,0,0,0,2.45-.57,3.45,3.45,0,0,0,1.48-1.63,6.23,6.23,0,0,0,.49-2.57,6.08,6.08,0,0,0-.48-2.53,3.61,3.61,0,0,0-1.44-1.62,4.52,4.52,0,0,0-2.35-.57h-2.33v9.49Z"/><path class="cls-3" d="M249.2,458.9a5.49,5.49,0,0,1,2.46-.69l1.38-.09,1.09-.05v-.74a1.74,1.74,0,0,0-.52-1.36,2.28,2.28,0,0,0-1.55-.47,2.45,2.45,0,0,0-1.36.34,1.59,1.59,0,0,0-.69.89h-1.5a2.43,2.43,0,0,1,.57-1.3,3.25,3.25,0,0,1,1.26-.88,4.84,4.84,0,0,1,1.79-.31,5.44,5.44,0,0,1,1.55.23,2.66,2.66,0,0,1,1.32,1,3.22,3.22,0,0,1,.57,2v6h-1.44v-1.23h-.07a2.62,2.62,0,0,1-.52.68,3,3,0,0,1-.9.55,3.63,3.63,0,0,1-1.29.22,3.77,3.77,0,0,1-1.59-.33,2.61,2.61,0,0,1-1.53-2.48A2.15,2.15,0,0,1,249.2,458.9Zm1,3.14a2.32,2.32,0,0,0,1.38.37,2.79,2.79,0,0,0,1.36-.31,2.14,2.14,0,0,0,1.18-1.92v-.92l-1.63.11-.66.05a3.17,3.17,0,0,0-1.59.44,1.23,1.23,0,0,0-.56,1.1A1.24,1.24,0,0,0,250.21,462Z"/><path class="cls-3" d="M261.87,455.57h-1.93v5.29a1.77,1.77,0,0,0,.17.85.83.83,0,0,0,.42.41,1.63,1.63,0,0,0,.61.1l.86,0v1.34a6.24,6.24,0,0,1-1,.07,3,3,0,0,1-1.21-.26,2.27,2.27,0,0,1-.93-.81,2.23,2.23,0,0,1-.36-1.29v-5.67h-1.37v-1.22h1.37v-2.18h1.45v2.18h1.93Z"/><path class="cls-3" d="M264.26,458.9a5.49,5.49,0,0,1,2.46-.69l1.38-.09,1.09-.05v-.74a1.74,1.74,0,0,0-.52-1.36,2.26,2.26,0,0,0-1.55-.47,2.47,2.47,0,0,0-1.36.34,1.59,1.59,0,0,0-.69.89h-1.5a2.43,2.43,0,0,1,.57-1.3,3.21,3.21,0,0,1,1.27-.88,4.76,4.76,0,0,1,1.79-.31,5.42,5.42,0,0,1,1.54.23,2.73,2.73,0,0,1,1.33,1,3.28,3.28,0,0,1,.56,2v6h-1.44v-1.23h-.07a2.42,2.42,0,0,1-.52.68,3,3,0,0,1-.9.55,3.63,3.63,0,0,1-1.29.22,3.69,3.69,0,0,1-1.58-.33,2.66,2.66,0,0,1-1.12-1,2.69,2.69,0,0,1-.41-1.51A2.14,2.14,0,0,1,264.26,458.9Zm1,3.14a2.32,2.32,0,0,0,1.38.37,2.83,2.83,0,0,0,1.37-.31,2.22,2.22,0,0,0,.87-.82,2.17,2.17,0,0,0,.3-1.1v-.92l-1.63.11-.66.05a3.17,3.17,0,0,0-1.59.44,1.23,1.23,0,0,0-.56,1.1A1.24,1.24,0,0,0,265.27,462Z"/></g></g></svg>