<svg xmlns="http://www.w3.org/2000/svg" xmlns:xlink="http://www.w3.org/1999/xlink" viewBox="0 0 101.48 24"><defs><style>.cls-1{isolation:isolate;}.cls-2{fill:#122089;}.cls-3{mix-blend-mode:multiply;fill:url(#무제_그라디언트_11);}</style><linearGradient id="무제_그라디언트_11" x1="69.51" y1="15.55" x2="101.48" y2="15.55" gradientUnits="userSpaceOnUse"><stop offset="0" stop-color="#2c3270"/><stop offset="1" stop-color="#6ba3d5"/></linearGradient></defs><g class="cls-1"><g id="레이어_2" data-name="레이어 2"><g id="Layer_1" data-name="Layer 1"><path class="cls-2" d="M8.94,14.67h1.93v1.09a2.6,2.6,0,0,1,2.22-1.25c1.71,0,3,1.27,3,3.57v.1c0,2.31-1.31,3.6-3,3.6a2.45,2.45,0,0,1-2.22-1.21V24H8.94Zm5.23,3.53v-.11c0-1.41-.69-2.1-1.66-2.1s-1.7.7-1.7,2.1v.11c0,1.4.66,2.07,1.71,2.07S14.17,19.56,14.17,18.2Z"/><path class="cls-2" d="M17.47,14.67h1.92v7H17.47Z"/><path class="cls-2" d="M28.42,18.24v-.11A3.46,3.46,0,0,1,32,14.51a3.21,3.21,0,0,1,3.4,3.54v.53h-5a1.67,1.67,0,0,0,1.73,1.83c.89,0,1.33-.39,1.45-1h1.82c-.22,1.5-1.42,2.34-3.32,2.34A3.38,3.38,0,0,1,28.42,18.24Zm5.1-.84c-.07-1-.6-1.56-1.52-1.56a1.61,1.61,0,0,0-1.6,1.56Z"/><path class="cls-2" d="M35.89,14.67h2l1.24,4.69,1.34-4.69h1.59l1.22,4.69,1.32-4.69h1.85l-2.2,7H42.38L41.2,17.27l-1.28,4.36H38Z"/><path class="cls-2" d="M46.87,19.7c0-1.62,1.49-2.23,3.61-2.23h.79v-.28c0-.83-.25-1.28-1.13-1.28a1,1,0,0,0-1.18,1H47.13c.12-1.65,1.42-2.38,3.13-2.38s2.91.7,2.91,2.58v4.54H51.3v-.84a2.37,2.37,0,0,1-2.11,1C47.93,21.78,46.87,21.17,46.87,19.7Zm4.4-.5v-.59h-.74c-1.12,0-1.77.24-1.77,1,0,.5.3.83,1,.83C50.62,20.43,51.27,20,51.27,19.2Z"/><path class="cls-2" d="M54.83,14.67h1.92V16A2.28,2.28,0,0,1,59,14.57v1.79c-1.42,0-2.25.45-2.25,1.79v3.48H54.83Z"/><path class="cls-2" d="M59.71,18.24v-.11a3.45,3.45,0,0,1,3.58-3.62,3.21,3.21,0,0,1,3.39,3.54v.53h-5c.06,1.16.68,1.83,1.73,1.83.89,0,1.33-.39,1.45-1h1.83c-.23,1.5-1.43,2.34-3.33,2.34A3.38,3.38,0,0,1,59.71,18.24Zm5.09-.84c-.06-1-.59-1.56-1.51-1.56a1.6,1.6,0,0,0-1.6,1.56Z"/><path class="cls-2" d="M18.75.09A1.51,1.51,0,1,1,16.81,1,1.52,1.52,0,0,1,18.75.09Z"/><path class="cls-2" d="M19,10.08A1.51,1.51,0,1,1,17,11,1.51,1.51,0,0,1,19,10.08Z"/><path class="cls-2" d="M27.52,4.69a1.52,1.52,0,1,1-1.93.93A1.52,1.52,0,0,1,27.52,4.69Z"/><path class="cls-2" d="M3.73,12C1.62,12,.27,13.2.27,14.82c0,1.83,1,2.57,3.43,2.89,1.4.21,1.8.47,1.8,1.23s-.63,1.27-1.58,1.27c-1.4,0-1.76-.71-1.86-1.56H0c.12,1.9,1.32,3.13,3.92,3.13,2.25,0,3.64-1.35,3.64-3,0-2-1.19-2.59-3.49-2.88-1.46-.22-1.77-.54-1.77-1.22s.48-1.07,1.43-1.07a2.11,2.11,0,0,1,1.89,1.09L7.13,14A3.5,3.5,0,0,0,3.73,12Z"/><path class="cls-2" d="M24.4,20.33c-1.07,0-1.7-.72-1.7-2.12v-.1c0-1.34.67-2.08,1.67-2.08a1.41,1.41,0,0,1,1.53,1.11l1.47-.65a2.9,2.9,0,0,0-3.05-2,3.46,3.46,0,0,0-3.59,3.62v.11a3.34,3.34,0,0,0,3.58,3.54c2,0,3.22-1.15,3.33-2.8H25.89A1.4,1.4,0,0,1,24.4,20.33Z"/><path class="cls-3" d="M69.51,15.63v-.14a6.09,6.09,0,0,1,6.28-6.32,6,6,0,0,1,6.26,6.27v.13a6.27,6.27,0,1,1-12.54.06Zm10.14,0v-.14c0-2.55-1.42-4.44-3.86-4.44s-3.87,1.79-3.87,4.47v.13c0,2.71,1.65,4.47,3.91,4.47S79.65,18.29,79.65,15.59Zm3.75-2.92h2.11v1.44a3.13,3.13,0,0,1,2.93-1.63c1.83,0,3.11,1.06,3.11,3.56v5.71h-2.1V16.23c0-1.37-.55-2-1.81-2a2,2,0,0,0-2.13,2.18v5.35h-2.1Zm9.27,4.64v-.14a4.41,4.41,0,0,1,4.51-4.69c2.26,0,4.29,1.33,4.3,4.58v.61H94.82c.07,1.72.94,2.69,2.5,2.69,1.27,0,1.93-.5,2.09-1.39h2c-.29,1.91-1.84,3-4.17,3A4.36,4.36,0,0,1,92.67,17.31Zm6.72-1c-.1-1.56-.9-2.26-2.21-2.26a2.32,2.32,0,0,0-2.32,2.26Z"/></g></g></g></svg>